<?xml version="1.0" encoding="UTF-8" standalone="no"?>
<!-- Created with Inkscape (http://www.inkscape.org/) -->

<svg
   version="1.1"
   id="svg1"
   width="74.826576"
   height="128.39999"
   viewBox="0 0 74.826576 128.39999"
   sodipodi:docname="ZipRecruiter_logo_white_print.eps"
   xmlns:inkscape="http://www.inkscape.org/namespaces/inkscape"
   xmlns:sodipodi="http://sodipodi.sourceforge.net/DTD/sodipodi-0.dtd"
   xmlns="http://www.w3.org/2000/svg"
   xmlns:svg="http://www.w3.org/2000/svg">
  <defs
     id="defs1" />
  <sodipodi:namedview
     id="namedview1"
     pagecolor="#ffffff"
     bordercolor="#000000"
     borderopacity="0.25"
     inkscape:showpageshadow="2"
     inkscape:pageopacity="0.0"
     inkscape:pagecheckerboard="0"
     inkscape:deskcolor="#d1d1d1" />
  <g
     id="g1"
     inkscape:groupmode="layer"
     inkscape:label="1"
     transform="translate(5.1289139,-115.23616)">
    <g
       id="group-R5"
       transform="translate(-5.128914,115.23615)">
      <path
         id="path32"
         d="m 523.602,448.699 -41.5,31.5 v 168.102 c 0,1.301 0.796,2.398 2,2.801 L 520.5,663.398 C 525.199,664.699 526,654 526,646.5 V 449.801 c 0,-1.102 -1.398,-1.801 -2.398,-1.102 z m -444.4028,31.5 -41.5,-31.5 c -1,-0.699 -2.3984,0 -2.3984,1.199 v 196.704 c 0,7.5 1.1992,18.296 5.5,16.898 l 36.3984,-12.301 c 1.1992,-0.398 2,-1.597 2,-2.801 z M 529,697.801 c -6.5,1.699 -13.398,1.301 -20.102,-0.903 l -26.796,-9.097 v 251.597 c 0,13 -10.602,23.602 -23.602,23.602 H 102.801 C 89.8008,963 79.1992,952.398 79.1992,939.398 V 687.801 l -26.8008,9.097 C 45.6992,699.102 38.8008,699.5 32.3008,697.801 22.5,695.398 0,685.602 0,646.602 V 440.699 c 0,-1.5 0.101563,-2.801 0.300781,-4.301 C 2.89844,418.602 15.5,397.699 42.3008,397.699 h 90.0002 c 9.398,-10.597 31.5,-28.898 72.699,-32.301 0.602,-30.699 19.398,-56.699 46,-68.097 v -58.699 c 0,-1.102 -0.898,-1.903 -1.898,-2 C 123.5,231.602 43,191.699 19.8984,178.602 5.60156,170.398 2.89844,154.102 2.89844,143 V 96.8984 C 3.5,80.6992 17.1016,67.8008 33.5,68.1992 c 15.3008,0.4024 28.1992,13 29,28.1992 0.8984,14.8006 -9.1016,27.4026 -22.8008,30.7036 -0.8984,0.199 -1.5,1 -1.5,1.898 v 16.602 c 0,4.398 2.4024,8.398 6.3008,10.398 34.1016,18.801 121,28.301 186.699,31.602 8.199,0.5 16.102,0.296 19.5,0.097 1,0 1.801,-0.801 1.801,-1.801 3.398,-53.199 8.699,-98.0972 10.5,-126.1988 h -2.5 C 249,59.6992 239.199,46.6016 239.199,29.8984 239.199,13.1992 249.102,0 260.5,0 h 40.199 C 312.199,0 322,13.1992 322,29.8984 c 0,16.7032 -9.898,29.7032 -21.301,29.7032 h -2.5 c 0,0 7.102,73.0004 10.5,126.1994 0.102,1 0.801,1.801 1.801,1.801 3.398,0.097 11.301,0.398 19.5,-0.102 65.699,-3.301 152.602,-12.801 186.699,-31.602 3.903,-2 6.301,-6 6.301,-10.398 v -16.602 c 0,-0.898 -0.602,-1.699 -1.5,-1.898 -13.602,-3.301 -23.699,-15.898 -22.801,-30.6992 0.801,-15.1992 13.699,-27.8008 29,-28.1992 16.403,-0.4024 30,12.5 30.602,28.6992 v 46.0972 c 0,11.102 -2.699,27.403 -17,35.602 -23.102,13.102 -103.602,53 -229.199,58 -1.102,0 -1.903,0.898 -1.903,2 v 58.699 c 26.602,11.403 45.403,37.403 46,68 41.199,3.5 63.301,21.801 72.699,32.403 h 90 c 26.801,0 39.403,20.898 42,38.699 0.204,1.5 0.301,2.801 0.301,4.301 v 206 c 0.102,39 -22.398,48.796 -32.199,51.199"
         style="fill:#54ab5c;fill-opacity:1;fill-rule:evenodd;stroke:none"
         transform="matrix(0.13333333,0,0,-0.13333333,0,128.4)"
         inkscape:export-filename="../chair_green.webp"
         inkscape:export-xdpi="96"
         inkscape:export-ydpi="96" />
    </g>
  </g>
</svg>
